<svg width="218" height="218" xmlns="http://www.w3.org/2000/svg" xmlns:xlink="http://www.w3.org/1999/xlink" xml:space="preserve" overflow="hidden"><g transform="translate(-893 -432)"><path d="M1014.94 541C1014.94 548.525 1008.84 554.625 1001.32 554.625 993.794 554.625 987.694 548.525 987.694 541 987.694 533.475 993.794 527.375 1001.32 527.375 1008.84 527.375 1014.94 533.475 1014.94 541Z" fill="#371A46" fill-opacity="0.39"/><path d="M1081.25 495.583C1077.39 488.998 1068.76 485.819 1056.95 485.819 1049.46 485.819 1040.83 487.181 1031.29 489.679 1024.71 465.835 1013.81 450.167 1001.32 450.167 989.056 450.167 977.929 465.608 971.571 489.225 962.487 486.954 954.312 485.592 947.046 485.592 935.237 485.592 926.608 488.771 922.748 495.356 916.39 506.256 924.792 523.742 942.277 541.454 925.473 558.713 917.752 575.517 923.883 586.19 927.744 592.775 936.373 595.954 948.181 595.954 954.994 595.954 962.942 594.819 971.571 592.775 978.156 616.392 989.056 631.833 1001.32 631.833 1013.58 631.833 1024.71 616.392 1031.07 592.775 1040.15 595.046 1048.32 596.408 1055.59 596.408 1067.4 596.408 1076.03 593.229 1079.89 586.644 1086.02 575.971 1078.3 559.167 1061.5 541.908 1079.44 523.969 1087.61 506.483 1081.25 495.583ZM1056.95 494.902C1065.36 494.902 1071.49 496.946 1073.3 500.125 1076.71 506.029 1070.58 519.881 1055.14 535.323 1049.69 530.327 1043.56 525.331 1036.74 520.562 1036.06 512.842 1034.93 505.348 1033.34 498.308 1041.97 496.038 1050.14 494.902 1056.95 494.902ZM1016.31 564.617C1011.54 567.342 1006.77 569.84 1002 572.11 997.231 569.84 992.463 567.342 987.694 564.617 983.152 561.892 978.61 559.167 974.523 556.442 974.069 551.446 974.069 546.45 974.069 541 974.069 536.004 974.296 531.235 974.523 526.467 979.065 523.287 983.833 520.335 989.056 517.383 993.371 514.885 997.685 512.615 1002 510.571 1006.31 512.615 1010.63 514.885 1014.94 517.383 1019.49 520.108 1024.03 522.833 1028.11 525.558 1028.57 530.554 1028.57 535.55 1028.57 541 1028.57 546.677 1028.34 552.127 1027.89 557.35 1024.25 559.848 1020.39 562.119 1016.31 564.617ZM1026.75 568.931C1026.07 573.246 1025.39 577.56 1024.71 581.421 1020.85 580.058 1016.76 578.696 1012.67 576.879 1015.4 575.517 1018.12 573.927 1020.85 572.338 1022.89 571.202 1024.94 570.067 1026.75 568.931ZM991.327 576.879C986.785 578.696 982.471 580.285 978.156 581.648 977.248 577.333 976.567 572.792 975.885 568.023 978.383 569.612 980.654 570.975 983.379 572.565 985.877 573.927 988.602 575.517 991.327 576.879ZM965.213 549.629C961.579 546.904 958.4 544.179 955.448 541.454 958.4 538.729 961.806 536.004 965.213 533.279 965.213 535.777 964.985 538.275 964.985 541 964.985 543.952 964.985 546.904 965.213 549.629ZM975.658 514.885C976.34 509.89 977.021 505.121 977.929 500.579 982.244 501.942 986.785 503.758 991.327 505.575 989.056 506.71 986.558 508.073 984.287 509.435 981.562 511.252 978.61 513.069 975.658 514.885ZM1012.45 505.575C1016.53 503.758 1020.62 502.396 1024.71 501.033 1025.62 505.121 1026.3 509.435 1026.98 513.977 1024.48 512.388 1022.21 511.025 1019.49 509.435 1017.21 508.3 1014.94 506.938 1012.45 505.575ZM1037.43 532.371C1041.51 535.55 1045.15 538.502 1048.55 541.681 1045.15 544.633 1041.51 547.812 1037.43 550.765 1037.65 547.585 1037.65 544.406 1037.65 541.227 1037.65 538.048 1037.65 535.096 1037.43 532.371ZM1001.32 459.25C1008.13 459.25 1016.99 471.285 1022.66 492.177 1016.08 494.448 1009.04 497.173 1002 500.352 994.506 496.946 987.24 493.994 980.2 491.723 985.877 471.058 994.506 459.25 1001.32 459.25ZM930.469 500.125C932.513 496.719 938.417 494.902 946.819 494.902 953.404 494.902 960.898 496.038 969.073 498.081 967.483 505.348 966.348 513.296 965.667 521.471 959.308 526.013 953.631 530.554 948.635 535.323 933.421 519.881 927.062 506.029 930.469 500.125ZM948.181 587.098C939.779 587.098 933.648 585.054 931.831 581.875 928.425 575.971 934.329 562.8 948.862 547.812 954.085 552.354 959.763 556.896 965.894 561.438 966.575 569.385 967.71 577.106 969.3 584.146 961.806 586.19 954.54 587.098 948.181 587.098ZM1001.32 622.75C994.506 622.75 985.877 610.942 980.2 590.504 987.24 588.233 994.506 585.508 1002 582.102 1009.04 585.281 1015.85 588.006 1022.44 590.05 1016.76 610.942 1008.13 622.75 1001.32 622.75ZM1072.17 581.875C1070.12 585.281 1064.22 587.098 1055.82 587.098 1049.23 587.098 1041.51 585.963 1033.56 583.919 1034.93 577.106 1036.06 570.067 1036.74 562.346 1043.56 557.577 1049.69 552.808 1055.14 547.812 1069.67 562.8 1075.57 575.971 1072.17 581.875Z" fill="#371A46" fill-opacity="0.39"/></g></svg>