<svg width="34" height="34" xmlns="http://www.w3.org/2000/svg" xmlns:xlink="http://www.w3.org/1999/xlink" xml:space="preserve" overflow="hidden"><g transform="translate(-21 -401)"><path d="M29.1458 430.042 29.1458 405.958 38 405.958 38 413.396 46.8542 413.396 46.8542 430.042 29.1458 430.042ZM40.125 406.844 44.5521 411.271 40.125 411.271 40.125 406.844ZM40.125 403.833 27.0208 403.833 27.0208 432.167 48.9792 432.167 48.9792 411.625 40.125 403.833Z" fill="#FFFFFF"/><path d="M31.2708 416.938 44.7292 416.938 44.7292 418.354 31.2708 418.354Z" fill="#FFFFFF"/><path d="M31.2708 414.104 35.875 414.104 35.875 415.521 31.2708 415.521Z" fill="#FFFFFF"/><path d="M31.2708 419.771 44.7292 419.771 44.7292 421.188 31.2708 421.188Z" fill="#FFFFFF"/><path d="M31.2708 422.604 44.7292 422.604 44.7292 424.021 31.2708 424.021Z" fill="#FFFFFF"/><path d="M31.2708 425.438 44.7292 425.438 44.7292 426.854 31.2708 426.854Z" fill="#FFFFFF"/></g></svg>