<svg width="291" height="291" xmlns="http://www.w3.org/2000/svg" xmlns:xlink="http://www.w3.org/1999/xlink" xml:space="preserve" overflow="hidden"><g transform="translate(-446 -111)"><path d="M676.375 292.875 506.625 292.875 506.625 189.812 676.375 189.812ZM694.562 183.75C694.562 177.054 689.134 171.625 682.438 171.625L500.562 171.625C493.866 171.625 488.438 177.054 488.438 183.75L488.438 311.062 694.562 311.062Z" fill="#2E163A" fill-opacity="0.5"/><path d="M609.688 323.188 609.688 326.219C609.792 327.789 608.603 329.146 607.032 329.25 606.907 329.258 606.781 329.258 606.656 329.25L576.344 329.25C574.774 329.354 573.417 328.165 573.312 326.595 573.304 326.47 573.304 326.344 573.312 326.219L573.312 323.188 452.062 323.188 452.062 329.25C452.062 335.946 457.491 341.375 464.188 341.375L718.812 341.375C725.509 341.375 730.938 335.946 730.938 329.25L730.938 323.188Z" fill="#2E163A" fill-opacity="0.5"/><path d="M591.5 198.906C568.062 198.906 549.062 217.906 549.062 241.344 549.062 264.781 568.062 283.781 591.5 283.781 614.938 283.781 633.938 264.781 633.938 241.344 633.938 217.906 614.938 198.906 591.5 198.906ZM594.531 244.375 608.445 244.375C606.86 254.825 601.987 264.498 594.531 271.99ZM594.531 238.312 594.531 210.668C601.994 218.166 606.868 227.851 608.445 238.312ZM588.469 238.312 575.01 238.312C576.517 228.03 581.227 218.484 588.469 211.031ZM588.469 244.375 588.469 271.656C581.24 264.193 576.533 254.652 575.01 244.375ZM568.917 238.312 555.943 238.312C557.289 222.435 569.009 209.379 584.649 206.333 576.008 214.956 570.474 226.204 568.917 238.312ZM568.917 244.375C570.476 256.504 576.033 267.768 584.71 276.385 569.046 273.341 557.303 260.274 555.943 244.375ZM614.537 244.375 627.057 244.375C625.729 260.073 614.256 273.038 598.836 276.264 607.473 267.678 612.998 256.456 614.537 244.375ZM614.537 238.312C612.986 226.263 607.498 215.064 598.927 206.454 614.301 209.712 625.727 222.653 627.057 238.312Z" fill="#2E163A" fill-opacity="0.5"/></g></svg>