<svg width="53" height="53" xmlns="http://www.w3.org/2000/svg" xmlns:xlink="http://www.w3.org/1999/xlink" xml:space="preserve" overflow="hidden"><g transform="translate(-736 -624)"><path d="M779.394 633.385 745.606 633.385C744.563 633.391 743.723 634.242 743.729 635.285 743.729 635.285 743.729 635.285 743.729 635.285L743.729 658.108C743.734 659.096 744.539 659.892 745.527 659.888 745.553 659.887 745.58 659.887 745.606 659.885L766.254 659.885 773.542 667.615 773.542 659.885 779.394 659.885C780.38 659.934 781.22 659.174 781.269 658.187 781.27 658.161 781.271 658.134 781.271 658.108L781.271 635.285C781.277 634.242 780.437 633.392 779.394 633.385 779.394 633.385 779.394 633.385 779.394 633.385ZM747.594 647.74 754.219 647.74 754.219 649.948 747.594 649.948ZM758.083 654.365 747.594 654.365 747.594 652.156 758.083 652.156ZM766.365 654.365 760.292 654.365 760.292 652.156 766.365 652.156ZM768.021 649.948 756.979 649.948 756.979 647.74 768.021 647.74ZM774.646 654.365 768.573 654.365 768.573 652.156 774.646 652.156ZM777.406 649.948 770.229 649.948 770.229 647.74 777.406 647.74Z" fill="#FFFFFF"/></g></svg>