<svg width="462" height="462" xmlns="http://www.w3.org/2000/svg" xmlns:xlink="http://www.w3.org/1999/xlink" xml:space="preserve" overflow="hidden"><g transform="translate(-497 -108)"><path d="M766.5 387.125 535.5 387.125 535.5 233.125 766.5 233.125 766.5 387.125ZM776.125 204.25 525.875 204.25C515.287 204.25 506.625 212.913 506.625 223.5L506.625 396.75C506.625 407.337 515.287 416 525.875 416L622.125 416 622.125 444.875 578.812 444.875 578.812 473.75 723.188 473.75 723.188 444.875 679.875 444.875 679.875 416 776.125 416C786.713 416 795.375 407.337 795.375 396.75L795.375 223.5C795.375 212.913 786.713 204.25 776.125 204.25Z" fill="#371A46" fill-opacity="0.47"/><path d="M930.125 252.375 833.875 252.375 833.875 223.5 930.125 223.5 930.125 252.375ZM930.125 300.5 833.875 300.5 833.875 271.625 930.125 271.625 930.125 300.5ZM882 444.875C873.819 444.875 867.562 438.619 867.562 430.438 867.562 422.256 873.819 416 882 416 890.181 416 896.438 422.256 896.438 430.438 896.438 438.619 890.181 444.875 882 444.875ZM930.125 204.25 833.875 204.25C823.287 204.25 814.625 212.913 814.625 223.5L814.625 454.5C814.625 465.087 823.287 473.75 833.875 473.75L930.125 473.75C940.713 473.75 949.375 465.087 949.375 454.5L949.375 223.5C949.375 212.913 940.713 204.25 930.125 204.25Z" fill="#371A46" fill-opacity="0.47"/></g></svg>