<svg width="34" height="34" xmlns="http://www.w3.org/2000/svg" xmlns:xlink="http://www.w3.org/1999/xlink" xml:space="preserve" overflow="hidden"><g transform="translate(-21 -310)"><path d="M31.9792 320.979 28.0833 320.979 28.0833 318.5 31.9792 318.5 31.9792 320.979ZM37.2917 318.5 37.2917 320.979 33.3958 320.979 33.3958 318.5 37.2917 318.5ZM42.6042 318.5 42.6042 320.979 38.7083 320.979 38.7083 318.5 42.6042 318.5ZM47.9167 318.5 47.9167 320.979 44.0208 320.979 44.0208 318.5 47.9167 318.5ZM47.9167 324.875 44.0208 324.875 44.0208 322.396 47.9167 322.396 47.9167 324.875ZM47.9167 327.885 44.0208 328.24 44.0208 326.292 47.9167 326.292 47.9167 327.885ZM31.9792 326.292 31.9792 329.302 28.0833 329.656 28.0833 326.292 31.9792 326.292ZM31.9792 324.875 28.0833 324.875 28.0833 322.396 31.9792 322.396 31.9792 324.875ZM37.2917 324.875 33.3958 324.875 33.3958 322.396 37.2917 322.396 37.2917 324.875ZM38.7083 324.875 38.7083 322.396 42.6042 322.396 42.6042 324.875 38.7083 324.875ZM37.2917 328.842 33.3958 329.196 33.3958 326.292 37.2917 326.292 37.2917 328.842ZM38.7083 326.292 42.6042 326.292 42.6042 328.346 38.7083 328.7 38.7083 326.292ZM50.0417 329.833 50.0417 316.375 28.0833 316.375 28.0833 316.021C28.0833 314.25 26.6667 312.833 24.8958 312.833 24.2938 312.833 23.8333 313.294 23.8333 313.896 23.8333 314.498 24.2938 314.958 24.8958 314.958 25.4979 314.958 25.9583 315.419 25.9583 316.021L25.9583 333.729C25.9583 335.5 27.375 336.917 29.1458 336.917L30.2083 336.917 45.7917 336.917 48.9792 336.917C49.5812 336.917 50.0417 336.456 50.0417 335.854 50.0417 335.252 49.5812 334.792 48.9792 334.792L29.1458 334.792C28.5437 334.792 28.0833 334.331 28.0833 333.729L28.0833 331.781 50.0417 329.833Z" fill="#FFFFFF"/><path d="M32.3333 339.042C32.3333 340.215 31.3819 341.167 30.2083 341.167 29.0347 341.167 28.0833 340.215 28.0833 339.042 28.0833 337.868 29.0347 336.917 30.2083 336.917 31.3819 336.917 32.3333 337.868 32.3333 339.042Z" fill="#FFFFFF"/><path d="M47.9167 339.042C47.9167 340.215 46.9653 341.167 45.7917 341.167 44.6181 341.167 43.6667 340.215 43.6667 339.042 43.6667 337.868 44.6181 336.917 45.7917 336.917 46.9653 336.917 47.9167 337.868 47.9167 339.042Z" fill="#FFFFFF"/></g></svg>