<svg width="34" height="34" xmlns="http://www.w3.org/2000/svg" xmlns:xlink="http://www.w3.org/1999/xlink" xml:space="preserve" overflow="hidden"><g transform="translate(-21 -234)"><path d="M49.3333 257.375C49.3148 256.488 48.8988 255.656 48.2 255.108 46.6417 253.833 44.6583 252.983 42.675 252.417 41.1598 251.953 39.5846 251.714 38 251.708 36.4171 251.736 34.8449 251.974 33.325 252.417 31.3443 252.995 29.476 253.905 27.8 255.108 27.1012 255.656 26.6852 256.488 26.6667 257.375L26.6667 263.042 49.3333 263.042Z" fill="#FFFFFF"/><path d="M36.9375 243.12C37.8583 242.578 40.125 240.828 40.125 240.828L40.125 240.828C40.4827 240.859 40.823 240.996 41.1025 241.221 41.7827 241.699 42.3587 242.31 42.7954 243.017 43.1885 243.605 43.525 244.08 43.6277 244.221L43.6277 244.221 43.6667 244.271 43.6667 244.271C43.8438 243.917 43.8367 242.929 43.7127 242.029 43.5392 240.789 43.3975 240.421 42.6042 239.755 42.0987 239.297 41.424 239.072 40.7448 239.135 39.8232 238.42 38.713 237.989 37.5502 237.896 35.7794 237.832 33.8456 238.756 33.024 239.84 31.7808 241.469 31.919 242.532 31.919 242.911 31.919 243.29 31.4833 243.949 31.7879 243.949 31.9862 243.949 32.181 243.949 32.3794 243.949L32.3794 243.949C33.5021 243.917 35.7935 243.793 36.9375 243.12Z" fill="#FFFFFF"/><path d="M43.1071 244.685C43.0894 244.66 42.6998 244.119 42.2252 243.414 41.8354 242.775 41.3183 242.222 40.7058 241.792 40.5866 241.705 40.4569 241.633 40.3198 241.579 39.6894 242.057 38.0673 243.276 37.2952 243.725 36.0698 244.434 33.835 244.621 32.3369 244.653 32.3757 247.783 34.944 250.288 38.0734 250.249 40.8685 250.215 43.2207 248.147 43.6135 245.379Z" fill="#FFFFFF"/></g></svg>